<svg width="175" height="34" viewBox="0 0 175 34" fill="none" xmlns="http://www.w3.org/2000/svg">
<g clip-path="url(#clip0_0_12)">
<path d="M14.2625 17.2188C12.693 15.9664 10.8719 15.3047 8.99061 15.3047C4.7589 15.3047 1.17577 18.7363 0.0765526 23.8359C-0.114854 24.7449 0.0560448 25.6888 0.548232 26.427C1.02675 27.1445 1.74479 27.5547 2.51042 27.5547H32.375C26.7312 27.5547 23.8984 25.5242 19.6219 21.8399L14.2625 17.2188ZM27.0976 16.2234L25.614 7.66486C25.4567 6.7215 24.9167 5.88751 24.1308 5.35431C23.345 4.82111 22.3677 4.62696 21.438 4.82521L10.9867 7.04798C9.49921 7.36243 8.39452 8.59454 8.23046 10.0984L7.85311 13.6641C8.22909 13.6162 8.59796 13.5547 8.98788 13.5547C11.2776 13.5547 13.4723 14.3477 15.4082 15.8997L20.7676 20.5137C24.6504 23.8633 27.0621 25.8047 32.3723 25.8047C33.8215 25.8047 34.9973 24.6289 34.9973 23.1797C35 21.7906 33.3812 16.65 27.0976 16.2234V16.2234Z" fill="black"/>
</g>
<path d="M54.4971 16.1479H51.2744V27H47.5513V16.1479H45.5005V14.3535L47.5513 13.3525V12.3516C47.5513 10.7972 47.9338 9.66195 48.6987 8.9458C49.4637 8.22965 50.6885 7.87158 52.373 7.87158C53.6589 7.87158 54.8022 8.06283 55.8032 8.44531L54.8511 11.1797C54.1024 10.9437 53.4106 10.8257 52.7759 10.8257C52.2469 10.8257 51.8644 10.9844 51.6284 11.3018C51.3924 11.611 51.2744 12.0098 51.2744 12.498V13.3525H54.4971V16.1479ZM65.3125 27L64.5923 25.1445H64.4946C63.868 25.9339 63.221 26.4832 62.5537 26.7925C61.8945 27.0936 61.0319 27.2441 59.9658 27.2441C58.6556 27.2441 57.6221 26.8698 56.8652 26.1211C56.1165 25.3724 55.7422 24.3063 55.7422 22.9229C55.7422 21.4743 56.2467 20.4082 57.2559 19.7246C58.2731 19.0329 59.8031 18.6504 61.8457 18.5771L64.2139 18.5039V17.9058C64.2139 16.5223 63.5059 15.8306 62.0898 15.8306C60.9993 15.8306 59.7176 16.1602 58.2446 16.8193L57.0117 14.3047C58.5824 13.4827 60.3239 13.0718 62.2363 13.0718C64.0674 13.0718 65.4712 13.4705 66.4478 14.2681C67.4243 15.0656 67.9126 16.2782 67.9126 17.9058V27H65.3125ZM64.2139 20.6768L62.7734 20.7256C61.6911 20.7581 60.8854 20.9535 60.3564 21.3115C59.8275 21.6696 59.563 22.2148 59.563 22.9473C59.563 23.9971 60.1652 24.522 61.3696 24.522C62.2323 24.522 62.9199 24.2738 63.4326 23.7773C63.9535 23.2809 64.2139 22.6217 64.2139 21.7998V20.6768ZM79.375 13.0962C79.8796 13.0962 80.2987 13.1328 80.6323 13.2061L80.3516 16.6973C80.0505 16.6159 79.6842 16.5752 79.2529 16.5752C78.0648 16.5752 77.137 16.8804 76.4697 17.4907C75.8105 18.1011 75.481 18.9556 75.481 20.0542V27H71.7578V13.3525H74.5776L75.127 15.6475H75.3101C75.7332 14.8825 76.3029 14.2681 77.019 13.8042C77.7433 13.3322 78.5286 13.0962 79.375 13.0962ZM95.3296 27H91.6064V19.0288C91.6064 18.0441 91.4396 17.3076 91.106 16.8193C90.7804 16.3229 90.2637 16.0747 89.5557 16.0747C88.6035 16.0747 87.9118 16.4246 87.4805 17.1245C87.0492 17.8244 86.8335 18.9759 86.8335 20.5791V27H83.1104V13.3525H85.9546L86.4551 15.0981H86.6626C87.0288 14.4715 87.5578 13.9832 88.2495 13.6333C88.9412 13.2752 89.7347 13.0962 90.6299 13.0962C92.6725 13.0962 94.056 13.7635 94.7803 15.0981H95.1099C95.4761 14.4634 96.0132 13.971 96.7212 13.6211C97.4373 13.2712 98.243 13.0962 99.1382 13.0962C100.684 13.0962 101.852 13.495 102.642 14.2925C103.439 15.0819 103.838 16.3514 103.838 18.1011V27H100.103V19.0288C100.103 18.0441 99.9357 17.3076 99.6021 16.8193C99.2765 16.3229 98.7598 16.0747 98.0518 16.0747C97.1403 16.0747 96.4567 16.4002 96.001 17.0513C95.5534 17.7023 95.3296 18.7358 95.3296 20.1519V27ZM119.548 13.3525V15.2446L117.412 15.7939C117.803 16.4043 117.998 17.0879 117.998 17.8447C117.998 19.3096 117.485 20.453 116.46 21.2749C115.443 22.0887 114.027 22.4956 112.212 22.4956L111.541 22.459L110.991 22.3979C110.609 22.6909 110.417 23.0164 110.417 23.3745C110.417 23.9116 111.101 24.1802 112.468 24.1802H114.788C116.285 24.1802 117.424 24.5016 118.206 25.1445C118.995 25.7874 119.39 26.7314 119.39 27.9766C119.39 29.5716 118.722 30.8086 117.388 31.6875C116.061 32.5664 114.153 33.0059 111.663 33.0059C109.758 33.0059 108.302 32.6722 107.292 32.0049C106.292 31.3457 105.791 30.418 105.791 29.2217C105.791 28.3997 106.047 27.7121 106.56 27.1587C107.073 26.6053 107.826 26.2106 108.818 25.9746C108.436 25.8118 108.102 25.5474 107.817 25.1812C107.533 24.8068 107.39 24.4121 107.39 23.9971C107.39 23.4762 107.541 23.0449 107.842 22.7031C108.143 22.3532 108.578 22.0114 109.148 21.6777C108.432 21.3685 107.862 20.8721 107.439 20.1885C107.024 19.5049 106.816 18.6992 106.816 17.7715C106.816 16.2822 107.301 15.1307 108.269 14.3169C109.237 13.5031 110.621 13.0962 112.419 13.0962C112.802 13.0962 113.254 13.1328 113.774 13.2061C114.303 13.2712 114.641 13.32 114.788 13.3525H119.548ZM109.014 28.9287C109.014 29.4414 109.258 29.8442 109.746 30.1372C110.243 30.4302 110.934 30.5767 111.821 30.5767C113.156 30.5767 114.202 30.3936 114.958 30.0273C115.715 29.6611 116.094 29.1606 116.094 28.5259C116.094 28.0132 115.87 27.6592 115.422 27.4639C114.975 27.2686 114.283 27.1709 113.347 27.1709H111.418C110.735 27.1709 110.161 27.3296 109.697 27.647C109.242 27.9725 109.014 28.3997 109.014 28.9287ZM110.369 17.8203C110.369 18.5609 110.535 19.1468 110.869 19.5781C111.211 20.0094 111.728 20.2251 112.419 20.2251C113.119 20.2251 113.632 20.0094 113.958 19.5781C114.283 19.1468 114.446 18.5609 114.446 17.8203C114.446 16.1764 113.77 15.3545 112.419 15.3545C111.052 15.3545 110.369 16.1764 110.369 17.8203ZM130.474 27L129.753 25.1445H129.656C129.029 25.9339 128.382 26.4832 127.715 26.7925C127.056 27.0936 126.193 27.2441 125.127 27.2441C123.817 27.2441 122.783 26.8698 122.026 26.1211C121.278 25.3724 120.903 24.3063 120.903 22.9229C120.903 21.4743 121.408 20.4082 122.417 19.7246C123.434 19.0329 124.964 18.6504 127.007 18.5771L129.375 18.5039V17.9058C129.375 16.5223 128.667 15.8306 127.251 15.8306C126.16 15.8306 124.879 16.1602 123.406 16.8193L122.173 14.3047C123.743 13.4827 125.485 13.0718 127.397 13.0718C129.229 13.0718 130.632 13.4705 131.609 14.2681C132.585 15.0656 133.074 16.2782 133.074 17.9058V27H130.474ZM129.375 20.6768L127.935 20.7256C126.852 20.7581 126.047 20.9535 125.518 21.3115C124.989 21.6696 124.724 22.2148 124.724 22.9473C124.724 23.9971 125.326 24.522 126.531 24.522C127.393 24.522 128.081 24.2738 128.594 23.7773C129.115 23.2809 129.375 22.6217 129.375 21.7998V20.6768ZM149.138 27H145.415V19.0288C145.415 18.0441 145.248 17.3076 144.915 16.8193C144.589 16.3229 144.072 16.0747 143.364 16.0747C142.412 16.0747 141.72 16.4246 141.289 17.1245C140.858 17.8244 140.642 18.9759 140.642 20.5791V27H136.919V13.3525H139.763L140.264 15.0981H140.471C140.837 14.4715 141.366 13.9832 142.058 13.6333C142.75 13.2752 143.543 13.0962 144.438 13.0962C146.481 13.0962 147.865 13.7635 148.589 15.0981H148.918C149.285 14.4634 149.822 13.971 150.53 13.6211C151.246 13.2712 152.052 13.0962 152.947 13.0962C154.493 13.0962 155.661 13.495 156.45 14.2925C157.248 15.0819 157.646 16.3514 157.646 18.1011V27H153.911V19.0288C153.911 18.0441 153.744 17.3076 153.411 16.8193C153.085 16.3229 152.568 16.0747 151.86 16.0747C150.949 16.0747 150.265 16.4002 149.81 17.0513C149.362 17.7023 149.138 18.7358 149.138 20.1519V27ZM167.131 15.7451C166.342 15.7451 165.723 15.9974 165.276 16.502C164.828 16.9984 164.572 17.7064 164.507 18.626H169.731C169.715 17.7064 169.475 16.9984 169.011 16.502C168.547 15.9974 167.921 15.7451 167.131 15.7451ZM167.656 27.2441C165.459 27.2441 163.742 26.6379 162.505 25.4253C161.268 24.2127 160.649 22.4956 160.649 20.2739C160.649 17.9871 161.219 16.2212 162.358 14.9761C163.506 13.7228 165.089 13.0962 167.107 13.0962C169.036 13.0962 170.537 13.6455 171.611 14.7441C172.686 15.8428 173.223 17.3605 173.223 19.2974V21.104H164.421C164.462 22.1619 164.775 22.988 165.361 23.582C165.947 24.1761 166.769 24.4731 167.827 24.4731C168.649 24.4731 169.426 24.3877 170.159 24.2168C170.891 24.0459 171.656 23.7733 172.454 23.3989V26.2798C171.803 26.6053 171.107 26.8454 170.366 27C169.626 27.1628 168.722 27.2441 167.656 27.2441Z" fill="black"/>
<defs>
<clipPath id="clip0_0_12">
<rect width="35" height="28" fill="white" transform="translate(0 3)"/>
</clipPath>
</defs>
</svg>
